<?xml version="1.0" encoding="iso-8859-1"?>
<!-- Generator: Adobe Illustrator 16.0.0, SVG Export Plug-In . SVG Version: 6.00 Build 0)  -->
<!DOCTYPE svg PUBLIC "-//W3C//DTD SVG 1.1//EN" "http://www.w3.org/Graphics/SVG/1.1/DTD/svg11.dtd">
<svg version="1.1" id="Layer_1" xmlns="http://www.w3.org/2000/svg" xmlns:xlink="http://www.w3.org/1999/xlink" x="0px" y="0px"
	 width="44.883px" height="44.71px" viewBox="0 0 44.883 44.71" style="enable-background:new 0 0 44.883 44.71;"
	 xml:space="preserve">
<g>
	<linearGradient id="SVGID_1_" gradientUnits="userSpaceOnUse" x1="39.0796" y1="2.3638" x2="1.5504" y2="39.8929">
		<stop  offset="0" style="stop-color:#31C2DD"/>
		<stop  offset="1" style="stop-color:#0B9BD7"/>
	</linearGradient>
	<path style="fill:url(#SVGID_1_);" d="M34.133,7.355c-0.547,0-1.093,0.043-1.635,0.128C30.625,2.992,26.244,0,21.24,0
		C15.361,0,10.372,4.262,9.258,9.858C4.131,9.987,0,14.198,0,19.355c0,4.159,2.781,7.899,6.713,9.08c0.845,0.278,1.72,0.42,2.6,0.42
		h25.256c0.965,0,1.922-0.173,2.848-0.513c4.469-1.431,7.467-5.538,7.467-10.237C44.883,12.178,40.061,7.355,34.133,7.355z
		 M36.165,24.544l-0.103,0.035c-0.489,0.184-0.992,0.276-1.493,0.276H9.312c-0.454,0-0.907-0.073-1.398-0.234
		C5.61,23.929,4,21.763,4,19.355c0-3.032,2.467-5.5,5.5-5.5c0.375,0,0.753,0.039,1.125,0.115l2.354,0.483l0.048-2.402
		C13.118,7.612,16.802,4,21.24,4c3.827,0,7.113,2.605,7.991,6.336l0.514,2.182l2.109-0.757c0.748-0.27,1.516-0.405,2.279-0.405
		c3.723,0,6.75,3.028,6.75,6.75C40.883,21.067,38.987,23.655,36.165,24.544z"/>
	<linearGradient id="SVGID_2_" gradientUnits="userSpaceOnUse" x1="41.4692" y1="4.7529" x2="3.9397" y2="42.2825">
		<stop  offset="0" style="stop-color:#31C2DD"/>
		<stop  offset="1" style="stop-color:#0B9BD7"/>
	</linearGradient>
	<path style="fill:url(#SVGID_2_);" d="M13.472,31.469c-0.717-0.415-1.635-0.168-2.049,0.549l-1.999,3.464
		c-0.414,0.718-0.168,1.635,0.549,2.049c0.236,0.137,0.494,0.201,0.749,0.201c0.519,0,1.023-0.269,1.301-0.75l1.999-3.464
		C14.435,32.8,14.189,31.883,13.472,31.469z"/>
	<linearGradient id="SVGID_3_" gradientUnits="userSpaceOnUse" x1="50.9673" y1="14.2554" x2="13.4425" y2="51.7802">
		<stop  offset="0" style="stop-color:#31C2DD"/>
		<stop  offset="1" style="stop-color:#0B9BD7"/>
	</linearGradient>
	<path style="fill:url(#SVGID_3_);" d="M32.471,31.469c-0.717-0.415-1.635-0.168-2.049,0.549l-1.999,3.464
		c-0.414,0.718-0.168,1.635,0.55,2.049c0.236,0.137,0.494,0.201,0.748,0.201c0.519,0,1.023-0.269,1.301-0.75l1.999-3.464
		C33.435,32.8,33.189,31.883,32.471,31.469z"/>
	<linearGradient id="SVGID_4_" gradientUnits="userSpaceOnUse" x1="48.2085" y1="11.4902" x2="10.6783" y2="49.0204">
		<stop  offset="0" style="stop-color:#31C2DD"/>
		<stop  offset="1" style="stop-color:#0B9BD7"/>
	</linearGradient>
	<path style="fill:url(#SVGID_4_);" d="M25.25,34.459H22.94l0.558-0.903c0.436-0.704,0.218-1.629-0.487-2.064
		c-0.705-0.434-1.63-0.216-2.064,0.488l-1.972,3.191c-0.286,0.463-0.299,1.044-0.034,1.519c0.265,0.476,0.766,0.77,1.31,0.77h2.438
		l-0.746,1.328c-0.006,0.012-0.012,0.021-0.018,0.032c-0.04,0.053-0.081,0.104-0.113,0.163l-1.93,3.503
		c-0.4,0.727-0.136,1.638,0.589,2.038c0.239,0.132,0.498,0.19,0.752,0.187c0.518-0.011,1.018-0.289,1.286-0.775l0.849-1.54
		c1.165-2.075,3.201-5.701,3.201-5.701c0.261-0.465,0.255-1.032-0.014-1.492S25.783,34.459,25.25,34.459z"/>
	<linearGradient id="SVGID_5_" gradientUnits="userSpaceOnUse" x1="46.1235" y1="9.4126" x2="8.5972" y2="46.939">
		<stop  offset="0" style="stop-color:#31C2DD"/>
		<stop  offset="1" style="stop-color:#0B9BD7"/>
	</linearGradient>
	<path style="fill:url(#SVGID_5_);" d="M16.284,37.969c-0.718-0.414-1.634-0.168-2.049,0.549l-1.999,3.464
		c-0.414,0.718-0.168,1.635,0.549,2.049c0.236,0.137,0.494,0.201,0.749,0.201c0.519,0,1.023-0.269,1.301-0.75l1.999-3.464
		C17.248,39.3,17.001,38.383,16.284,37.969z"/>
</g>
</svg>
