<?xml version="1.0" encoding="iso-8859-1"?>
<!-- Generator: Adobe Illustrator 16.0.0, SVG Export Plug-In . SVG Version: 6.00 Build 0)  -->
<!DOCTYPE svg PUBLIC "-//W3C//DTD SVG 1.1//EN" "http://www.w3.org/Graphics/SVG/1.1/DTD/svg11.dtd">
<svg version="1.1" id="Layer_1" xmlns="http://www.w3.org/2000/svg" xmlns:xlink="http://www.w3.org/1999/xlink" x="0px" y="0px"
	 width="44.885px" height="43.543px" viewBox="0 0 44.885 43.543" style="enable-background:new 0 0 44.885 43.543;"
	 xml:space="preserve">
<g>
	<linearGradient id="SVGID_1_" gradientUnits="userSpaceOnUse" x1="41.085" y1="0.3569" x2="1.3075" y2="40.1344">
		<stop  offset="0" style="stop-color:#31C2DD"/>
		<stop  offset="1" style="stop-color:#0B9BD7"/>
	</linearGradient>
	<path style="fill:url(#SVGID_1_);" d="M34.135,7.355c-0.547,0-1.094,0.043-1.636,0.128C30.626,2.992,26.245,0,21.24,0
		C15.361,0,10.373,4.262,9.259,9.858C4.132,9.986,0,14.197,0,19.355c0,4.159,2.781,7.899,6.713,9.08
		c0.845,0.278,1.719,0.42,2.6,0.42h25.256c0.965,0,1.923-0.173,2.848-0.513c4.47-1.431,7.469-5.538,7.469-10.237
		C44.885,12.178,40.062,7.355,34.135,7.355z M36.165,24.544l-0.101,0.034c-0.491,0.185-0.994,0.277-1.496,0.277H9.312
		c-0.454,0-0.906-0.073-1.397-0.234C5.61,23.928,4,21.763,4,19.355c0-3.032,2.468-5.5,5.5-5.5c0.375,0,0.755,0.039,1.127,0.115
		l2.354,0.483l0.049-2.402C13.119,7.612,16.803,4,21.24,4c3.828,0,7.113,2.605,7.99,6.336l0.513,2.181l2.109-0.756
		c0.75-0.269,1.518-0.405,2.282-0.405c3.722,0,6.75,3.028,6.75,6.75C40.885,21.067,38.988,23.655,36.165,24.544z"/>
	<linearGradient id="SVGID_2_" gradientUnits="userSpaceOnUse" x1="43.2178" y1="2.4854" x2="3.4376" y2="42.2655">
		<stop  offset="0" style="stop-color:#31C2DD"/>
		<stop  offset="1" style="stop-color:#0B9BD7"/>
	</linearGradient>
	<path style="fill:url(#SVGID_2_);" d="M13.057,35.313c0.553,0,1-0.447,1-1s-0.447-1-1-1h-0.666v-0.667c0-0.553-0.447-1-1-1
		s-1,0.447-1,1v0.667H9.723c-0.553,0-1,0.447-1,1s0.447,1,1,1h0.668v0.667c0,0.553,0.447,1,1,1s1-0.447,1-1v-0.667H13.057z"/>
	<linearGradient id="SVGID_3_" gradientUnits="userSpaceOnUse" x1="48.1553" y1="7.4229" x2="8.3751" y2="47.203">
		<stop  offset="0" style="stop-color:#31C2DD"/>
		<stop  offset="1" style="stop-color:#0B9BD7"/>
	</linearGradient>
	<path style="fill:url(#SVGID_3_);" d="M22.932,35.313c0.553,0,1-0.447,1-1s-0.447-1-1-1h-0.666v-0.667c0-0.553-0.447-1-1-1
		s-1,0.447-1,1v0.667h-0.668c-0.553,0-1,0.447-1,1s0.447,1,1,1h0.668v0.667c0,0.553,0.447,1,1,1s1-0.447,1-1v-0.667H22.932z"/>
	<linearGradient id="SVGID_4_" gradientUnits="userSpaceOnUse" x1="53.0918" y1="12.3608" x2="13.3116" y2="52.141">
		<stop  offset="0" style="stop-color:#31C2DD"/>
		<stop  offset="1" style="stop-color:#0B9BD7"/>
	</linearGradient>
	<path style="fill:url(#SVGID_4_);" d="M32.807,33.313h-0.666v-0.667c0-0.553-0.447-1-1-1s-1,0.447-1,1v0.667h-0.668
		c-0.553,0-1,0.447-1,1s0.447,1,1,1h0.668v0.667c0,0.553,0.447,1,1,1s1-0.447,1-1v-0.667h0.666c0.553,0,1-0.447,1-1
		S33.359,33.313,32.807,33.313z"/>
	<linearGradient id="SVGID_5_" gradientUnits="userSpaceOnUse" x1="48.3887" y1="7.6694" x2="8.6163" y2="47.4418">
		<stop  offset="0" style="stop-color:#31C2DD"/>
		<stop  offset="1" style="stop-color:#0B9BD7"/>
	</linearGradient>
	<path style="fill:url(#SVGID_5_);" d="M16.848,39.876h-0.666v-0.667c0-0.553-0.447-1-1-1s-1,0.447-1,1v0.667h-0.667
		c-0.553,0-1,0.447-1,1s0.447,1,1,1h0.667v0.667c0,0.553,0.447,1,1,1s1-0.447,1-1v-0.667h0.666c0.553,0,1-0.447,1-1
		S17.4,39.876,16.848,39.876z"/>
	<linearGradient id="SVGID_6_" gradientUnits="userSpaceOnUse" x1="53.3281" y1="12.6035" x2="13.553" y2="52.3787">
		<stop  offset="0" style="stop-color:#31C2DD"/>
		<stop  offset="1" style="stop-color:#0B9BD7"/>
	</linearGradient>
	<path style="fill:url(#SVGID_6_);" d="M26.723,39.876h-0.666v-0.667c0-0.553-0.447-1-1-1s-1,0.447-1,1v0.667H23.39
		c-0.553,0-1,0.447-1,1s0.447,1,1,1h0.667v0.667c0,0.553,0.447,1,1,1s1-0.447,1-1v-0.667h0.666c0.553,0,1-0.447,1-1
		S27.275,39.876,26.723,39.876z"/>
</g>
</svg>
