<?xml version="1.0" encoding="iso-8859-1"?>
<!-- Generator: Adobe Illustrator 16.0.0, SVG Export Plug-In . SVG Version: 6.00 Build 0)  -->
<!DOCTYPE svg PUBLIC "-//W3C//DTD SVG 1.1//EN" "http://www.w3.org/Graphics/SVG/1.1/DTD/svg11.dtd">
<svg version="1.1" id="Layer_1" xmlns="http://www.w3.org/2000/svg" xmlns:xlink="http://www.w3.org/1999/xlink" x="0px" y="0px"
	 width="58.516px" height="35.412px" viewBox="0 0 58.516 35.412" style="enable-background:new 0 0 58.516 35.412;"
	 xml:space="preserve">
<linearGradient id="SVGID_1_" gradientUnits="userSpaceOnUse" x1="48.3164" y1="0.4604" x2="10.5301" y2="38.2467">
	<stop  offset="0" style="stop-color:#31C2DD"/>
	<stop  offset="1" style="stop-color:#0B9BD7"/>
</linearGradient>
<path style="fill:url(#SVGID_1_);" d="M50.395,5.557c-0.413,0-0.825,0.032-1.235,0.097C47.744,2.261,44.435,0,40.655,0
	c-4.44,0-8.21,3.22-9.052,7.447c-1.339,0.034-2.583,0.441-3.644,1.115c-1.938-1.275-4.253-2.006-6.72-2.006
	c-5.878,0-10.867,4.262-11.981,9.858C4.132,16.544,0,20.755,0,25.912c0,4.159,2.781,7.899,6.713,9.08
	c0.845,0.278,1.72,0.42,2.6,0.42h25.256c0.966,0,1.923-0.173,2.848-0.513c4.47-1.43,7.468-5.537,7.468-10.237
	c0-0.993-0.146-1.951-0.399-2.864h6.239c0.743,0,1.479-0.136,2.111-0.375c3.397-1.069,5.681-4.182,5.681-7.745
	C58.516,9.2,54.872,5.557,50.395,5.557z M36.164,31.1l-0.102,0.036c-0.49,0.184-0.992,0.276-1.494,0.276H9.312
	c-0.453,0-0.906-0.073-1.397-0.234C5.61,30.484,4,28.319,4,25.912c0-3.032,2.468-5.5,5.5-5.5c0.375,0,0.754,0.039,1.126,0.115
	l2.354,0.484l0.049-2.402c0.09-4.44,3.774-8.053,8.212-8.053c3.828,0,7.113,2.605,7.991,6.336l0.513,2.182l2.109-0.757
	c0.748-0.27,1.516-0.405,2.28-0.405c3.723,0,6.75,3.028,6.75,6.75C40.884,27.624,38.987,30.212,36.164,31.1z M51.851,18.567
	c-0.369,0.139-0.748,0.209-1.127,0.209h-7.604c-1.924-2.926-5.23-4.864-8.985-4.864c-0.547,0-1.093,0.043-1.635,0.128
	c-0.513-1.23-1.22-2.343-2.07-3.317c0.427-0.152,0.878-0.256,1.357-0.256c0.285,0,0.57,0.029,0.849,0.087l1.779,0.368l0.037-1.816
	c0.068-3.354,2.852-6.084,6.204-6.084c2.891,0,5.373,1.969,6.036,4.786l0.388,1.648l1.594-0.572
	c0.564-0.203,1.144-0.306,1.722-0.306c2.812,0,5.1,2.288,5.1,5.1C55.494,15.915,54.062,17.869,51.851,18.567z"/>
</svg>
