<?xml version="1.0" encoding="iso-8859-1"?>
<!-- Generator: Adobe Illustrator 16.0.0, SVG Export Plug-In . SVG Version: 6.00 Build 0)  -->
<!DOCTYPE svg PUBLIC "-//W3C//DTD SVG 1.1//EN" "http://www.w3.org/Graphics/SVG/1.1/DTD/svg11.dtd">
<svg version="1.1" id="Layer_1" xmlns="http://www.w3.org/2000/svg" xmlns:xlink="http://www.w3.org/1999/xlink" x="0px" y="0px"
	 width="42.449px" height="35.958px" viewBox="0 0 42.449 35.958" style="enable-background:new 0 0 42.449 35.958;"
	 xml:space="preserve">
<g>
	<g>
		<linearGradient id="SVGID_1_" gradientUnits="userSpaceOnUse" x1="32.6895" y1="-11.2388" x2="-8.3009" y2="29.7516">
			<stop  offset="0" style="stop-color:#31C2DD"/>
			<stop  offset="1" style="stop-color:#0B9BD7"/>
		</linearGradient>
		<path style="fill:url(#SVGID_1_);" d="M36.385,4H2.514c-1.104,0-2-0.896-2-2s0.896-2,2-2h33.871c1.104,0,2,0.896,2,2
			S37.489,4,36.385,4L36.385,4z"/>
	</g>
	<g>
		<linearGradient id="SVGID_2_" gradientUnits="userSpaceOnUse" x1="37.6904" y1="-6.2368" x2="-3.2996" y2="34.7532">
			<stop  offset="0" style="stop-color:#31C2DD"/>
			<stop  offset="1" style="stop-color:#0B9BD7"/>
		</linearGradient>
		<path style="fill:url(#SVGID_2_);" d="M40.449,10.392H5.676c-1.104,0-2-0.896-2-2s0.896-2,2-2h34.773c1.104,0,2,0.896,2,2
			S41.554,10.392,40.449,10.392L40.449,10.392z"/>
	</g>
	<g>
		<linearGradient id="SVGID_3_" gradientUnits="userSpaceOnUse" x1="39.4189" y1="-4.5083" x2="-1.5708" y2="36.4814">
			<stop  offset="0" style="stop-color:#31C2DD"/>
			<stop  offset="1" style="stop-color:#0B9BD7"/>
		</linearGradient>
		<path style="fill:url(#SVGID_3_);" d="M36.385,16.783H3.869c-1.104,0-2-0.896-2-2s0.896-2,2-2h32.516c1.104,0,2,0.896,2,2
			S37.489,16.783,36.385,16.783L36.385,16.783z"/>
	</g>
	<g>
		<linearGradient id="SVGID_4_" gradientUnits="userSpaceOnUse" x1="38.874" y1="-5.0537" x2="-2.1162" y2="35.9366">
			<stop  offset="0" style="stop-color:#31C2DD"/>
			<stop  offset="1" style="stop-color:#0B9BD7"/>
		</linearGradient>
		<path style="fill:url(#SVGID_4_);" d="M23.289,23.175H2c-1.104,0-2-0.896-2-2s0.896-2,2-2h21.289c1.104,0,2,0.896,2,2
			S24.394,23.175,23.289,23.175L23.289,23.175z"/>
	</g>
	<g>
		<linearGradient id="SVGID_5_" gradientUnits="userSpaceOnUse" x1="42.4385" y1="-1.4883" x2="1.4489" y2="39.5013">
			<stop  offset="0" style="stop-color:#31C2DD"/>
			<stop  offset="1" style="stop-color:#0B9BD7"/>
		</linearGradient>
		<path style="fill:url(#SVGID_5_);" d="M19.283,29.566H7.482c-1.104,0-2-0.896-2-2s0.896-2,2-2h11.801c1.104,0,2,0.896,2,2
			S20.388,29.566,19.283,29.566L19.283,29.566z"/>
	</g>
	<g>
		<linearGradient id="SVGID_6_" gradientUnits="userSpaceOnUse" x1="46.501" y1="2.5757" x2="5.512" y2="43.5647">
			<stop  offset="0" style="stop-color:#31C2DD"/>
			<stop  offset="1" style="stop-color:#0B9BD7"/>
		</linearGradient>
		<path style="fill:url(#SVGID_6_);" d="M17.283,35.958h-4.332c-1.104,0-2-0.896-2-2s0.896-2,2-2h4.332c1.104,0,2,0.896,2,2
			S18.388,35.958,17.283,35.958L17.283,35.958z"/>
	</g>
</g>
</svg>
