<?xml version="1.0" encoding="iso-8859-1"?>
<!-- Generator: Adobe Illustrator 16.0.0, SVG Export Plug-In . SVG Version: 6.00 Build 0)  -->
<!DOCTYPE svg PUBLIC "-//W3C//DTD SVG 1.1//EN" "http://www.w3.org/Graphics/SVG/1.1/DTD/svg11.dtd">
<svg version="1.1" id="Layer_1" xmlns="http://www.w3.org/2000/svg" xmlns:xlink="http://www.w3.org/1999/xlink" x="0px" y="0px"
	 width="44.884px" height="37.731px" viewBox="0 0 44.884 37.731" style="enable-background:new 0 0 44.884 37.731;"
	 xml:space="preserve">
<g>
	<g>
		<linearGradient id="SVGID_1_" gradientUnits="userSpaceOnUse" x1="42.126" y1="-0.6821" x2="1.9571" y2="39.4868">
			<stop  offset="0" style="stop-color:#31C2DD"/>
			<stop  offset="1" style="stop-color:#0B9BD7"/>
		</linearGradient>
		<path style="fill:url(#SVGID_1_);" d="M34.568,28.855H9.312c-0.88,0-1.755-0.142-2.6-0.42C2.781,27.255,0,23.515,0,19.355
			c0-5.157,4.131-9.368,9.258-9.497C10.373,4.262,15.362,0,21.24,0c5.004,0,9.385,2.992,11.258,7.483
			c0.543-0.085,1.089-0.128,1.636-0.128c5.928,0,10.75,4.822,10.75,10.75c0,4.7-2.999,8.808-7.468,10.237
			C36.491,28.683,35.533,28.855,34.568,28.855L34.568,28.855z M9.5,13.855c-3.033,0-5.5,2.468-5.5,5.5
			c0,2.407,1.61,4.572,3.915,5.266c0.491,0.161,0.944,0.234,1.397,0.234h25.256c0.502,0,1.004-0.093,1.494-0.276l0.102-0.036
			c2.823-0.888,4.72-3.476,4.72-6.438c0-3.722-3.028-6.75-6.75-6.75c-0.765,0-1.532,0.136-2.28,0.405l-2.109,0.757l-0.514-2.182
			C28.354,6.605,25.068,4,21.24,4c-4.438,0-8.122,3.612-8.212,8.053l-0.049,2.402l-2.354-0.484
			C10.254,13.895,9.875,13.855,9.5,13.855L9.5,13.855z"/>
	</g>
	<g>
		<linearGradient id="SVGID_2_" gradientUnits="userSpaceOnUse" x1="44.5166" y1="1.7075" x2="4.3474" y2="41.8767">
			<stop  offset="0" style="stop-color:#31C2DD"/>
			<stop  offset="1" style="stop-color:#0B9BD7"/>
		</linearGradient>
		<path style="fill:url(#SVGID_2_);" d="M10.722,37.731c-0.254,0-0.512-0.064-0.749-0.201c-0.717-0.414-0.963-1.331-0.549-2.049
			l1.999-3.464c0.415-0.717,1.333-0.964,2.049-0.549c0.717,0.414,0.963,1.331,0.549,2.049l-1.999,3.464
			C11.745,37.463,11.24,37.731,10.722,37.731L10.722,37.731z"/>
	</g>
	<g>
		<linearGradient id="SVGID_3_" gradientUnits="userSpaceOnUse" x1="49.2646" y1="6.459" x2="9.0974" y2="46.6262">
			<stop  offset="0" style="stop-color:#31C2DD"/>
			<stop  offset="1" style="stop-color:#0B9BD7"/>
		</linearGradient>
		<path style="fill:url(#SVGID_3_);" d="M20.222,37.731c-0.254,0-0.512-0.064-0.749-0.201c-0.717-0.414-0.963-1.331-0.549-2.049
			l1.999-3.464c0.415-0.717,1.332-0.964,2.049-0.549c0.717,0.414,0.963,1.331,0.549,2.049l-1.999,3.464
			C21.245,37.463,20.74,37.731,20.222,37.731L20.222,37.731z"/>
	</g>
	<g>
		<linearGradient id="SVGID_4_" gradientUnits="userSpaceOnUse" x1="54.0156" y1="11.2075" x2="13.8466" y2="51.3765">
			<stop  offset="0" style="stop-color:#31C2DD"/>
			<stop  offset="1" style="stop-color:#0B9BD7"/>
		</linearGradient>
		<path style="fill:url(#SVGID_4_);" d="M29.722,37.731c-0.255,0-0.513-0.064-0.749-0.201c-0.717-0.414-0.963-1.331-0.549-2.049
			l1.999-3.464c0.415-0.717,1.333-0.964,2.05-0.549c0.717,0.414,0.963,1.331,0.549,2.049l-1.999,3.464
			C30.744,37.463,30.24,37.731,29.722,37.731L29.722,37.731z"/>
	</g>
</g>
</svg>
