<?xml version="1.0" encoding="iso-8859-1"?>
<!-- Generator: Adobe Illustrator 16.0.0, SVG Export Plug-In . SVG Version: 6.00 Build 0)  -->
<!DOCTYPE svg PUBLIC "-//W3C//DTD SVG 1.1//EN" "http://www.w3.org/Graphics/SVG/1.1/DTD/svg11.dtd">
<svg version="1.1" id="Layer_1" xmlns="http://www.w3.org/2000/svg" xmlns:xlink="http://www.w3.org/1999/xlink" x="0px" y="0px"
	 width="44.883px" height="36.98px" viewBox="0 0 44.883 36.98" style="enable-background:new 0 0 44.883 36.98;"
	 xml:space="preserve">
<g>
	<linearGradient id="SVGID_1_" gradientUnits="userSpaceOnUse" x1="40.9902" y1="0.4526" x2="0.5646" y2="40.8783">
		<stop  offset="0" style="stop-color:#31C2DD"/>
		<stop  offset="1" style="stop-color:#0B9BD7"/>
	</linearGradient>
	<path style="fill:url(#SVGID_1_);" d="M34.133,7.355c-0.547,0-1.093,0.043-1.635,0.128C30.625,2.992,26.243,0,21.24,0
		C15.361,0,10.372,4.262,9.258,9.858C4.131,9.988,0,14.198,0,19.355c0,4.159,2.781,7.899,6.713,9.08c0.845,0.278,1.72,0.42,2.6,0.42
		h25.256c0.966,0,1.923-0.173,2.847-0.513c4.469-1.431,7.468-5.537,7.468-10.237C44.883,12.178,40.061,7.355,34.133,7.355z
		 M36.163,24.543l-0.103,0.036c-0.488,0.184-0.99,0.276-1.492,0.276H9.312c-0.454,0-0.907-0.073-1.398-0.234
		C5.609,23.929,4,21.763,4,19.355c0-3.032,2.468-5.5,5.5-5.5c0.375,0,0.753,0.039,1.124,0.115l2.354,0.484l0.05-2.402
		C13.117,7.612,16.802,4,21.24,4c3.827,0,7.113,2.605,7.99,6.336l0.514,2.183l2.11-0.759c0.747-0.269,1.514-0.404,2.278-0.404
		c3.722,0,6.75,3.028,6.75,6.75C40.883,21.067,38.986,23.655,36.163,24.543z"/>
	<linearGradient id="SVGID_2_" gradientUnits="userSpaceOnUse" x1="43.1182" y1="2.5835" x2="2.6942" y2="43.0075">
		<stop  offset="0" style="stop-color:#31C2DD"/>
		<stop  offset="1" style="stop-color:#0B9BD7"/>
	</linearGradient>
	<path style="fill:url(#SVGID_2_);" d="M13.056,33.313h-0.667v-0.667c0-0.553-0.447-1-1-1s-1,0.447-1,1v0.667H9.723
		c-0.553,0-1,0.447-1,1s0.447,1,1,1h0.666v0.667c0,0.553,0.447,1,1,1s1-0.447,1-1v-0.667h0.667c0.553,0,1-0.447,1-1
		S13.608,33.313,13.056,33.313z"/>
	<linearGradient id="SVGID_3_" gradientUnits="userSpaceOnUse" x1="48.0566" y1="7.52" x2="7.6315" y2="47.9452">
		<stop  offset="0" style="stop-color:#31C2DD"/>
		<stop  offset="1" style="stop-color:#0B9BD7"/>
	</linearGradient>
	<path style="fill:url(#SVGID_3_);" d="M22.931,33.313h-0.667v-0.667c0-0.553-0.447-1-1-1s-1,0.447-1,1v0.667h-0.666
		c-0.553,0-1,0.447-1,1s0.447,1,1,1h0.666v0.667c0,0.553,0.447,1,1,1s1-0.447,1-1v-0.667h0.667c0.553,0,1-0.447,1-1
		S23.483,33.313,22.931,33.313z"/>
	<linearGradient id="SVGID_4_" gradientUnits="userSpaceOnUse" x1="52.9951" y1="12.457" x2="12.5694" y2="52.8827">
		<stop  offset="0" style="stop-color:#31C2DD"/>
		<stop  offset="1" style="stop-color:#0B9BD7"/>
	</linearGradient>
	<path style="fill:url(#SVGID_4_);" d="M32.806,33.313h-0.667v-0.667c0-0.553-0.447-1-1-1s-1,0.447-1,1v0.667h-0.666
		c-0.553,0-1,0.447-1,1s0.447,1,1,1h0.666v0.667c0,0.553,0.447,1,1,1s1-0.447,1-1v-0.667h0.667c0.553,0,1-0.447,1-1
		S33.358,33.313,32.806,33.313z"/>
</g>
</svg>
